<svg width="21" height="21" viewBox="0 0 21 21" fill="none" xmlns="http://www.w3.org/2000/svg">
<path d="M10.8638 7.19006C10.8638 6.84489 10.5839 6.56506 10.2388 6.56506C9.89359 6.56506 9.61377 6.84489 9.61377 7.19006V11.3919L7.82784 14.3685C7.65024 14.6645 7.74622 15.0484 8.04221 15.226C8.3382 15.4036 8.72211 15.3076 8.8997 15.0116L10.7747 11.8866C10.833 11.7895 10.8638 11.6783 10.8638 11.5651V7.19006Z" fill="black"/>
<path d="M8.36377 0.315063C8.01859 0.315063 7.73877 0.594885 7.73877 0.940063C7.73877 1.28524 8.01859 1.56506 8.36377 1.56506H8.98877V2.90374C4.74813 3.51055 1.48877 7.1569 1.48877 11.5651C1.48877 14.3869 2.82497 16.8964 4.89695 18.4957L4.14455 19.2481C3.90048 19.4922 3.90048 19.8879 4.14455 20.132C4.38863 20.3761 4.78436 20.3761 5.02844 20.132L5.9608 19.1996C7.22604 19.91 8.68587 20.3151 10.2388 20.3151C11.7917 20.3151 13.2515 19.91 14.5167 19.1996L15.4491 20.132C15.6932 20.3761 16.0889 20.3761 16.333 20.132C16.5771 19.8879 16.5771 19.4922 16.333 19.2481L15.5806 18.4957C17.6526 16.8964 18.9888 14.3869 18.9888 11.5651C18.9888 7.1569 15.7294 3.51055 11.4888 2.90374V1.56506H12.1138C12.4589 1.56506 12.7388 1.28524 12.7388 0.940063C12.7388 0.594885 12.4589 0.315063 12.1138 0.315063H8.36377ZM9.66118 4.08694C9.8517 4.07245 10.0443 4.06506 10.2388 4.06506C10.4332 4.06506 10.6258 4.07245 10.8164 4.08694C14.6883 4.38149 17.7388 7.61733 17.7388 11.5651C17.7388 14.2196 16.3601 16.5526 14.2768 17.8864C13.1115 18.6325 11.7266 19.0651 10.2388 19.0651C8.75093 19.0651 7.36605 18.6325 6.20076 17.8864C4.11743 16.5526 2.73877 14.2196 2.73877 11.5651C2.73877 7.61733 5.78925 4.38149 9.66118 4.08694Z" fill="black"/>
<path d="M0.23877 4.69006C0.23877 5.63175 0.65529 6.47615 1.31415 7.04908C2.27615 5.15171 3.82542 3.60244 5.72279 2.64044C5.14985 1.98158 4.30545 1.56506 3.36377 1.56506C1.63788 1.56506 0.23877 2.96417 0.23877 4.69006Z" fill="black"/>
<path d="M17.1138 1.56506C16.1721 1.56506 15.3277 1.98158 14.7548 2.64044C16.6521 3.60244 18.2014 5.15171 19.1634 7.04908C19.8223 6.47615 20.2388 5.63175 20.2388 4.69006C20.2388 2.96417 18.8397 1.56506 17.1138 1.56506Z" fill="black"/>
</svg>
