<svg width="100" height="100" viewBox="0 0 100 100" fill="none" xmlns="http://www.w3.org/2000/svg">
<path d="M35.9828 6.69532C37.4627 7.58328 37.9426 9.50285 37.0547 10.9828L21.1443 37.5H78.8557L62.9453 10.9828C62.0574 9.50285 62.5373 7.58328 64.0172 6.69532C65.4971 5.80736 67.4167 6.28725 68.3047 7.76718L86.1443 37.5H93.75C97.2018 37.5 100 40.2982 100 43.75V50C100 53.4518 97.2018 56.25 93.75 56.25V84.3765C93.75 93.0064 86.754 100 78.125 100H21.875C13.246 100 6.25 93.0064 6.25 84.3765V56.25C2.79822 56.25 0 53.4518 0 50V43.75C0 40.2982 2.79822 37.5 6.25 37.5H13.8557L31.6953 7.76718C32.5833 6.28725 34.5029 5.80736 35.9828 6.69532ZM12.5 56.25V84.3765C12.5 89.5537 16.6968 93.75 21.875 93.75H78.125C83.3032 93.75 87.5 89.5537 87.5 84.3765V56.25H12.5ZM6.25 43.75V50H93.75V43.75H6.25ZM25 62.5C26.7259 62.5 28.125 63.8991 28.125 65.625V84.375C28.125 86.1009 26.7259 87.5 25 87.5C23.2741 87.5 21.875 86.1009 21.875 84.375V65.625C21.875 63.8991 23.2741 62.5 25 62.5ZM37.5 62.5C39.2259 62.5 40.625 63.8991 40.625 65.625V84.375C40.625 86.1009 39.2259 87.5 37.5 87.5C35.7741 87.5 34.375 86.1009 34.375 84.375V65.625C34.375 63.8991 35.7741 62.5 37.5 62.5ZM50 62.5C51.7259 62.5 53.125 63.8991 53.125 65.625V84.375C53.125 86.1009 51.7259 87.5 50 87.5C48.2741 87.5 46.875 86.1009 46.875 84.375V65.625C46.875 63.8991 48.2741 62.5 50 62.5ZM62.5 62.5C64.2259 62.5 65.625 63.8991 65.625 65.625V84.375C65.625 86.1009 64.2259 87.5 62.5 87.5C60.7741 87.5 59.375 86.1009 59.375 84.375V65.625C59.375 63.8991 60.7741 62.5 62.5 62.5ZM75 62.5C76.7259 62.5 78.125 63.8991 78.125 65.625V84.375C78.125 86.1009 76.7259 87.5 75 87.5C73.2741 87.5 71.875 86.1009 71.875 84.375V65.625C71.875 63.8991 73.2741 62.5 75 62.5Z" fill="black"/>
</svg>
