<svg width="46" height="46" viewBox="0 0 46 46" fill="none" xmlns="http://www.w3.org/2000/svg">
<path d="M0 1.53333C0 0.686497 0.686497 0 1.53333 0H6.13333C6.83693 0 7.45024 0.478856 7.62088 1.16145L8.86386 6.13333H44.4667C44.9228 6.13333 45.3553 6.33642 45.6466 6.68742C45.9379 7.03843 46.0578 7.50091 45.9737 7.94924L41.3737 32.4826C41.2378 33.2078 40.6045 33.7333 39.8667 33.7333H36.8H15.3333H12.2667C11.5288 33.7333 10.8956 33.2078 10.7596 32.4826L6.16802 7.99419L4.93614 3.06667H1.53333C0.686497 3.06667 0 2.38017 0 1.53333ZM9.51422 9.2L13.5392 30.6667H38.5941L42.6191 9.2H9.51422ZM15.3333 33.7333C11.946 33.7333 9.2 36.4793 9.2 39.8667C9.2 43.254 11.946 46 15.3333 46C18.7207 46 21.4667 43.254 21.4667 39.8667C21.4667 36.4793 18.7207 33.7333 15.3333 33.7333ZM36.8 33.7333C33.4126 33.7333 30.6667 36.4793 30.6667 39.8667C30.6667 43.254 33.4126 46 36.8 46C40.1873 46 42.9333 43.254 42.9333 39.8667C42.9333 36.4793 40.1873 33.7333 36.8 33.7333ZM15.3333 36.8C17.027 36.8 18.4 38.173 18.4 39.8667C18.4 41.5603 17.027 42.9333 15.3333 42.9333C13.6397 42.9333 12.2667 41.5603 12.2667 39.8667C12.2667 38.173 13.6397 36.8 15.3333 36.8ZM36.8 36.8C38.4937 36.8 39.8667 38.173 39.8667 39.8667C39.8667 41.5603 38.4937 42.9333 36.8 42.9333C35.1063 42.9333 33.7333 41.5603 33.7333 39.8667C33.7333 38.173 35.1063 36.8 36.8 36.8Z" fill="black"/>
</svg>
