<svg width="100" height="100" viewBox="0 0 100 100" fill="none" xmlns="http://www.w3.org/2000/svg">
<path d="M87.5 6.25C90.9518 6.25 93.75 9.04822 93.75 12.5V62.5C93.75 65.9518 90.9518 68.75 87.5 68.75H27.5888C24.2736 68.75 21.0942 70.067 18.75 72.4112L6.25 84.9112V12.5C6.25 9.04822 9.04822 6.25 12.5 6.25H87.5ZM12.5 0C5.59644 0 0 5.59644 0 12.5V92.4556C0 95.2397 3.36606 96.6339 5.3347 94.6653L23.1694 76.8306C24.3415 75.6585 25.9312 75 27.5888 75H87.5C94.4036 75 100 69.4036 100 62.5V12.5C100 5.59644 94.4036 0 87.5 0H12.5Z" fill="black"/>
</svg>
