<svg width="60" height="60" viewBox="0 0 60 60" fill="none" xmlns="http://www.w3.org/2000/svg">
<path d="M52.5 39.375C52.5 38.3395 51.6605 37.5 50.625 37.5H39.375C38.3395 37.5 37.5 38.3395 37.5 39.375C37.5 40.4105 38.3395 41.25 39.375 41.25H50.625C51.6605 41.25 52.5 40.4105 52.5 39.375Z" fill="black"/>
<path d="M52.5 28.125C52.5 27.0895 51.6605 26.25 50.625 26.25H24.375C23.3395 26.25 22.5 27.0895 22.5 28.125C22.5 29.1605 23.3395 30 24.375 30H50.625C51.6605 30 52.5 29.1605 52.5 28.125Z" fill="black"/>
<path d="M52.5 16.875C52.5 15.8395 51.6605 15 50.625 15H9.375C8.33947 15 7.5 15.8395 7.5 16.875C7.5 17.9105 8.33947 18.75 9.375 18.75H50.625C51.6605 18.75 52.5 17.9105 52.5 16.875Z" fill="black"/>
</svg>
