<svg width="100" height="100" viewBox="0 0 100 100" fill="none" xmlns="http://www.w3.org/2000/svg">
<path d="M37.5 6.25H6.25L6.25 93.75H37.5V6.25ZM93.75 6.25H62.5V37.5H93.75V6.25ZM93.75 62.5V93.75H62.5V62.5H93.75ZM0 6.25C0 2.79822 2.79822 0 6.25 0H37.5C40.9518 0 43.75 2.79822 43.75 6.25V93.75C43.75 97.2018 40.9518 100 37.5 100H6.25C2.79822 100 0 97.2018 0 93.75V6.25ZM56.25 6.25C56.25 2.79822 59.0482 0 62.5 0H93.75C97.2018 0 100 2.79822 100 6.25V37.5C100 40.9518 97.2018 43.75 93.75 43.75H62.5C59.0482 43.75 56.25 40.9518 56.25 37.5V6.25ZM62.5 56.25C59.0482 56.25 56.25 59.0482 56.25 62.5V93.75C56.25 97.2018 59.0482 100 62.5 100H93.75C97.2018 100 100 97.2018 100 93.75V62.5C100 59.0482 97.2018 56.25 93.75 56.25H62.5Z" fill="black"/>
</svg>
