<svg width="100" height="100" viewBox="0 0 100 100" fill="none" xmlns="http://www.w3.org/2000/svg">
<path d="M25 100C25 100 18.75 100 18.75 93.75C18.75 87.5 25 68.75 50 68.75C75 68.75 81.25 87.5 81.25 93.75C81.25 100 75 100 75 100H25Z" fill="black"/>
<path d="M50 62.8126C58.6294 62.8126 65.625 55.817 65.625 47.1876C65.625 38.5581 58.6294 31.5626 50 31.5626C41.3706 31.5626 34.375 38.5581 34.375 47.1876C34.375 55.817 41.3706 62.8126 50 62.8126Z" fill="black"/>
<path d="M12.5 6.25C5.59644 6.25 0 11.8464 0 18.75V78.125C0 83.3027 4.19733 87.5 9.375 87.5H13.4555C14.551 83.5844 16.6568 79.0898 20.1174 75H6.25V18.75C6.25 15.2982 9.04822 12.5 12.5 12.5H87.5C90.9518 12.5 93.75 15.2982 93.75 18.75V75H79.8826C83.3432 79.0898 85.449 83.5844 86.5445 87.5H90.625C95.8027 87.5 100 83.3027 100 78.125V18.75C100 11.8464 94.4036 6.25 87.5 6.25H12.5Z" fill="black"/>
</svg>
