<svg width="63" height="65" viewBox="0 0 63 65" fill="none" xmlns="http://www.w3.org/2000/svg">
<path d="M28.6271 8.3164C30.1827 6.60442 32.8166 6.60441 34.3722 8.3164L59.3591 35.8152C61.7167 38.4098 59.9336 42.6562 56.4865 42.6562H45.2809V54.8437C45.2809 57.0874 43.518 58.9062 41.3434 58.9062H21.6559C19.4812 58.9062 17.7184 57.0874 17.7184 54.8437V42.6562H6.51269C3.06565 42.6562 1.28256 38.4098 3.64014 35.8152L28.6271 8.3164ZM56.4865 38.5937L31.4996 11.0949L6.51269 38.5937H17.7184C19.893 38.5937 21.6559 40.4126 21.6559 42.6562V54.8437H41.3434V42.6562C41.3434 40.4126 43.1062 38.5937 45.2809 38.5937L56.4865 38.5937Z" fill="black"/>
</svg>
